# xmcd CD database file generated by OrangeCD 5.2
#
# Track frame offsets:
#	150
#	15456
#	27841
#	49747
#	74696
#	91307
#	119365
#	132649
#	150803
#	172788
#	183294
#	195749
#	218931
#	233081
#	251762
#
# Disc length: 3511 seconds
#
# Revision: 0
# Processed by: cddbd v1.5PL3 Copyright (c) Steve Scherf et al.
# Submitted via: OrangeCD 5.2
#
DISCID=c60db50f
DTITLE=Howlin' Wolf - Howlin' Wolf
DYEAR=2002
DGENRE=Blues
TTITLE0=Killing Floor
TTITLE1=Ain't Superstitious
TTITLE2=Dust My Broom
TTITLE3=Little Red Rooster
TTITLE4=Shake It For Me
TTITLE5=Goin' Down Slow
TTITLE6=Highway 49
TTITLE7=Poor Boy
TTITLE8=Wang Dang Doodle
TTITLE9=Built For Comfort
TTITLE10=My Mind Is Ramblin'
TTITLE11=Rockin' The Blues
TTITLE12=I Walked From Dallas
TTITLE13=Howlin' For My Darling
TTITLE14=Louise
EXTD=
EXTT0=
EXTT1=
EXTT2=
EXTT3=
EXTT4=
EXTT5=
EXTT6=
EXTT7=
EXTT8=
EXTT9=
EXTT10=
EXTT11=
EXTT12=
EXTT13=
EXTT14=
PLAYORDER=
